<svg xmlns="http://www.w3.org/2000/svg" xml:space="preserve" width="69" height="93" style="shape-rendering:geometricPrecision;text-rendering:geometricPrecision;image-rendering:optimizeQuality;fill-rule:evenodd;clip-rule:evenodd" viewBox="0 0 5.346 7.2"><defs><style>.fil0{fill:#c7954a}</style></defs><g id="Camada_x0020_1"><g id="_2207096163504"><path class="fil0" d="M4.764 3.729c0-.117.015-.18.015-.286.434.01.484.536.225.811a1.367 1.367 0 0 1-.146.14c-.108.076-.124.059-.194.092l.072-.457c.009-.088.042-.126.118-.139.049-.009.07.004.116-.013.156-.058.032-.262-.206-.148zM.523 3.8c0 .152.276-.001.299.229l.072.457C.862 4.47.822 4.459.792 4.445.316 4.233.227 3.456.78 3.443c0 .112.014.169.014.286-.049-.023-.271-.082-.271.071zm.443-.385c0-.542.097-.863.1-1 .165-.003.383-.133.491-.208a1.5 1.5 0 0 0 .272-.257l.393-.492c.075-.06.115-.1.213-.144.299-.138.297-.063.344-.063.022 0 .173-.086.443.093.139.091.15.138.232.239.121.146.202.049.354.118.279.126.27.429.62.665.047.032.038.016.055.074.165.577.13 1.41.004 1.983-.083.378-.292.873-.585 1.099l-.155.132c-.057.05-.096.079-.162.123-.19.126-.564.319-.806.319-.122 0-.332-.075-.436-.116a2.405 2.405 0 0 1-.941-.745c-.29-.428-.436-1.105-.436-1.82zM.823 2.258c-.023.035-.052.053-.035.105.015.043.042.062.092.067l-.078.536c-.009.063-.009.234-.025.275-.022.054-.043.023-.119.037-.044.008-.077.027-.121.037C.535 3.198.49 2.889.494 2.7c.001-.073.011-.079.015-.142.011-.213-.008-.196.036-.478C.666 1.31 1.116.825 1.75.458 1.869.39 1.971.345 2.106.3a2.082 2.082 0 0 1 1.796.207c.585.354.994.854 1.11 1.561.032.201.064.549.04.763-.006.052-.001.117-.001.17-.001.107-.029.215-.029.314-.044-.01-.066-.024-.109-.034-.187-.045-.11.069-.151-.307a3.93 3.93 0 0 0-.034-.265c-.015-.084-.043-.174-.049-.251.086.041.165.013.128-.143-.091-.044-.147-.007-.303-.111a.718.718 0 0 1-.2-.214c-.12-.18-.284-.456-.541-.487-.034-.004-.058-.002-.093-.007-.132-.019-.061-.068-.281-.247-.256-.209-.435-.169-.569-.216-.047-.017.024-.017-.041-.017-.07 0 .035.017-.151.049-.635.109-.718.663-1.189 1.01-.158.116-.344.183-.616.183zm-.5.286c0 .407-.011.42.04.819.02.158-.233.254-.126.667.081.316.391.642.714.642.079.335.297.707.546.953.034.033.045.036.079.065.11.093.316.289.447.324-.016.033-.023.128-.035.18-.186.833-.651.776-.651.905 0 .233.318-.005.376-.052.254-.207.467-.645.467-.933.074.006.339.157.542.157V6.4c0 .07.115.07.115 0v-.129c.202 0 .468-.151.542-.157 0 .28.217.734.459.926.067.054.202.159.312.159.037 0 .169-.097-.042-.2a.849.849 0 0 1-.337-.305c-.102-.168-.22-.45-.22-.651 0-.044.095-.084.165-.135.14-.101.38-.297.483-.43.176-.227.34-.515.408-.806.48 0 .953-.713.637-1.166-.106-.153-.008-.202-.008-.577 0-.932-.045-1.494-.696-2.145L4.302.565a2.675 2.675 0 0 0-.471-.301C3.133-.084 2.437-.09 1.737.259a2.643 2.643 0 0 0-.711.517 2.325 2.325 0 0 0-.509.719 2.201 2.201 0 0 0-.138.476 3.172 3.172 0 0 0-.056.573z"></path><path class="fil0" d="M2.722 5.1v.114c-.039 0-.128-.009-.128.086 0 .052.034.077.081.091.142.044.047.01.047.08V5.6c0 .07.115.07.115 0 0-.148.013-.123-.029-.186.263-.061.134-.2.086-.2h-.057V5.1c.074-.017.1-.051.157-.057.025-.003.397.026.41-.116.012-.118-.093-.041-.268-.041-.081 0-.112-.029-.171-.029-.107 0-.065.057-.2.057-.075 0-.087-.057-.157-.057-.06 0-.095.029-.286.029-.062 0-.051-.029-.114-.029-.087 0-.087.152.132.183.067.009.144-.002.212.002.073.004.088.039.17.058zM1.437 3.486c-.07 0-.153-.047-.154.026-.001.026.102.187.26.095l.151-.078c-.026.099-.057-.006-.057.2 0 .227.443.306.443-.057 0-.052-.017-.05-.029-.1.031.021.186.148.186 0 0-.047-.122-.129-.16-.155-.314-.209-.639.069-.64.069zM3.879 3.543zm0 0zm0 0c.057.005.122.059.176.083.131.059.352-.18.132-.146-.119.019-.058-.012-.184-.075-.384-.192-.759.131-.667.224.071.034.123-.025.172-.057-.012.049-.069.131.007.249.123.191.434.105.407-.163-.007-.079-.027-.054-.043-.115zM.252 5.086a.175.175 0 0 0 .114-.114c.038.028.023.031.061.067.048.048.052.016.067.075-.072.02-.079.079-.128.115a.175.175 0 0 0-.114-.115v-.028zm.1.385c.164 0 .119-.1.21-.189.065-.064.189-.069.189-.182 0-.117-.127-.12-.189-.182-.091-.089-.046-.189-.21-.189-.082 0-.112.146-.163.194C.128 4.979 0 4.994 0 5.1c0 .101.122.122.181.171.053.043.098.2.171.2zM.937 5.528l.041-.03.028.033c-.011.047-.003.03-.04.055l-.029-.058zm-.257.015c0 .08.099.107.141.144.044.038.055.14.147.148.109.01.106-.083.152-.138.052-.061.146-.04.146-.154 0-.11-.084-.092-.139-.147-.074-.073-.018-.139-.176-.139-.031 0-.058.033-.074.054l-.035.065c-.048.071-.162.072-.162.167zM3.165 3.058c0 .037.011.071.057.071.444 0 .795-.119 1.073-.016.061.022.067.043.141.045.017-.072.012-.082-.142-.158-.224-.109-.645-.083-.886-.042-.071.012-.243.026-.243.1zM1.108 3.129c.118.079.059-.057.415-.057.222 0 .523.057.814.057.046 0 .057-.034.057-.071 0-.077-.168-.088-.243-.1-.216-.037-.655-.062-.857.028-.063.029-.166.072-.186.143zM2.694 2.172c0 .053.016.048.024.09.009.044-.001.085.003.126.011.104.116.07.116.013v-.129h.628c.127 0 .159-.185-.029-.185h-.628c-.052 0-.114.039-.114.085z"></path><path class="fil0" d="M3.279 3.886c0 .17.485.4.757.4.046 0 .219-.157-.083-.188-.355-.036-.475-.283-.602-.283-.034 0-.072.038-.072.071zM3.322 4.643c0 .138.152.126.19.311.014.07-.015.112-.051.172-.062.101.062.248.181.052.089-.146.057-.315-.04-.444-.184-.243-.28-.151-.28-.091zM2.722 4.357c-.037-.008-.243-.174-.243.015 0 .086.207.164.3.164.094 0 .3-.078.3-.164 0-.189-.205-.023-.242-.015 0-.069.012-.142-.058-.142-.069 0-.057.073-.057.142zM2.722 4.672V4.8c0 .071.115.071.115 0 0-.091.018-.185-.058-.185a.055.055 0 0 0-.057.057zM2.722 5.871V6c0 .07.115.07.115 0 0-.091.018-.186-.058-.186a.055.055 0 0 0-.057.057zM2.722 6.671V6.8c0 .07.115.07.115 0 0-.092.018-.186-.058-.186a.055.055 0 0 0-.057.057zM2.722.673v.128c0 .071.115.071.115 0 0-.091.018-.185-.058-.185a.055.055 0 0 0-.057.057zM2.722.273v.129c0 .07.115.07.115 0 0-.091.018-.186-.058-.186a.055.055 0 0 0-.057.057zM2.722 2.672v.129c0 .07.115.07.115 0 0-.091.018-.186-.058-.186a.055.055 0 0 0-.057.057zM2.722 3.072v.129c0 .07.115.07.115 0 0-.091.018-.186-.058-.186a.055.055 0 0 0-.057.057zM2.722 3.472v.129c0 .07.115.07.115 0 0-.091.018-.186-.058-.186a.055.055 0 0 0-.057.057zM2.722 3.872V4c0 .071.115.071.115 0 0-.091.018-.185-.058-.185a.055.055 0 0 0-.057.057zM2.722 1.473v.128c0 .071.115.071.115 0 0-.091.018-.185-.058-.185a.055.055 0 0 0-.057.057zM2.722 1.873v.128c0 .07.115.07.115 0 0-.091.018-.186-.058-.186a.055.055 0 0 0-.057.058z"></path></g></g></svg>