<svg width="54" height="70" viewBox="0 0 54 70" fill="none" xmlns="http://www.w3.org/2000/svg">
<g id="Logo">
<path id="Vector" fill-rule="evenodd" clip-rule="evenodd" d="M0.333515 61.8058C0.333082 63.8561 0.293945 65.9558 0.33892 68C0.696996 67.9166 4.9206 64.8707 5.75416 64.2799C6.17689 63.9802 7.21025 63.3077 7.48984 63.0078C7.99732 62.748 8.71305 62.1739 9.18702 61.8477L19.1173 54.8504C19.6298 54.481 20.2785 54.0915 20.701 53.6871L26.2053 49.8323C26.6596 49.5314 27.5831 48.8746 27.8703 48.5358C29.2083 47.8715 32.3056 44.2887 33.0888 42.7081C35.7263 37.3841 35.1417 31.7461 34.9769 26.1076C34.9477 25.1127 34.994 24.5757 34.5784 23.8056C33.9416 22.6256 32.2969 22.0213 30.4919 22.2616C29.4862 22.3953 27.077 23.4852 26.6309 23.9257C26.062 24.0958 25.2224 24.6046 24.645 24.9001C24.3382 25.0571 23.9684 25.2561 23.7055 25.3902C23.3626 25.5648 22.9794 25.6724 22.7288 25.9501C22.2894 26.0372 20.7159 26.905 20.2908 27.1906C19.6423 27.6267 18.9385 28.3243 18.8449 29.4855C31.7618 55.0513 3.20893 37.2974 0.333515 61.8058V61.8058ZM13.3367 41.5725C14.8961 40.8199 16.6162 39.93 16.2674 37.6628C0.943495 12.1306 32.21 30.6214 34.8091 7.11711C34.7937 4.75391 34.7756 2.36913 34.8035 0.00714111C34.2337 0.118028 32.8189 1.24297 32.3013 1.6092L25.3478 6.55678L14.8503 13.9371C14.2306 14.3217 13.5499 14.8399 12.9546 15.2686C12.0181 15.9431 7.78066 18.8263 7.31555 19.3553C6.35333 19.7964 3.96681 22.441 3.17174 23.5064L2.35137 24.7269C2.24174 24.9131 2.16605 25.0289 2.07178 25.2049C0.789107 27.6033 0.142152 30.9158 0.0418218 34.0481C-0.014614 35.8097 -0.0228318 37.6555 0.0731739 39.3648C0.159017 40.8944 -0.0980802 43.1256 0.640126 44.2454C1.31844 45.2741 2.83464 45.9518 4.69486 45.6701C5.616 45.5305 6.12522 45.2743 6.82385 44.927L8.2155 44.2216C8.31735 44.1687 8.37443 44.1451 8.45703 44.092C8.47087 44.0831 8.49552 44.0666 8.50784 44.058C8.5193 44.0497 8.54309 44.0299 8.55282 44.0224L8.63195 43.949L13.3367 41.5725V41.5725Z" fill="#b98a44"/>
<path id="Vector_4" fill-rule="evenodd" clip-rule="evenodd" d="M42.2963 0H47.6399C48.7423 0 49.6515 0.848429 49.6608 1.88568L49.7062 6.9291C49.7155 7.96635 48.8214 8.81478 47.7191 8.81478H42.3754C41.2731 8.81478 40.3638 7.96635 40.3545 6.9291L40.3091 1.88568C40.2998 0.848429 41.1939 0 42.2963 0Z" fill="#b98a44"/>
<path id="Vector_5" fill-rule="evenodd" clip-rule="evenodd" d="M38.0864 11.8729H41.5559C42.2716 11.8729 42.8619 12.4238 42.8679 13.0973L42.8973 16.3716C42.9034 17.0451 42.323 17.596 41.6073 17.596H38.1379C37.4222 17.596 36.8319 17.0451 36.8258 16.3716L36.7964 13.0973C36.7904 12.4238 37.3707 11.8729 38.0864 11.8729Z" fill="#b98a44"/>
</g>
</svg>